<svg xmlns="http://www.w3.org/2000/svg" fill-rule="evenodd" stroke-linejoin="round" stroke-miterlimit="2" clip-rule="evenodd" viewBox="0 0 12 12"><path d="M5.52,4.08c0,-0.32 0.243,-0.48 0.48,-0.48c0.235,0 0.48,0.16 0.48,0.48c-0,0.116 -0.068,0.208 -0.155,0.295c-0.124,0.125 -0.292,0.234 -0.458,0.345c-0.237,0.158 -0.472,0.32 -0.623,0.506c-0.129,0.158 -0.204,0.334 -0.204,0.534c0,0.133 0.107,0.24 0.24,0.24l1.44,0c0.132,-0 0.24,-0.108 0.24,-0.24c-0,-0.132 -0.108,-0.24 -0.24,-0.24l-1.097,0c0.016,-0.019 0.034,-0.037 0.052,-0.055c0.124,-0.125 0.292,-0.234 0.458,-0.345c0.237,-0.158 0.472,-0.32 0.623,-0.506c0.129,-0.158 0.204,-0.334 0.204,-0.534c-0,-0.64 -0.489,-0.96 -0.96,-0.96c-0.474,-0 -0.96,0.32 -0.96,0.96c0,0.132 0.108,0.24 0.24,0.24c0.132,0 0.24,-0.108 0.24,-0.24Z"/><path d="M8.16 5.28l0 .48c0 .132.108.24.24.24.132 0 .24-.108.24-.24l0-.48c.132 0 .24-.108.24-.24 0-.132-.108-.24-.24-.24 0 0 0-1.44 0-1.44 0-.104-.067-.197-.167-.229-.099-.031-.208.005-.268.09l-1.2 1.68c-.053.073-.06.169-.018.249.041.08.123.13.213.13l.96 0zm0-.48l0-.691c0 0-.494.691-.494.691l.494 0zM8.173 9.826l.006-.006.001 0-.001 0 .001-.001 1.116-1.116c.06-.06.084-.146.064-.228-.017-.068-.058-.152-.126-.244-.114-.153-.314-.347-.551-.537-.344-.276-.764-.548-1.086-.687-.169-.073-.316-.109-.424-.109-.087 0-.167.047-.21.123l-.666 1.2c-.184.104-.408.104-.645.044-.303-.077-.624-.253-.931-.486-.567-.43-1.082-1.056-1.32-1.657-.13-.328-.182-.646-.085-.909 0 0 1.183-.657 1.183-.657.076-.042.123-.122.123-.21 0-.107-.037-.255-.109-.423-.139-.322-.411-.743-.687-1.087-.191-.236-.384-.437-.537-.55-.092-.068-.177-.109-.244-.126-.082-.021-.169.003-.228.063l-1.117 1.116c-.411.412-.565 1.137-.474 1.965.127 1.163.722 2.53 1.591 3.399.867.867 2.231 1.461 3.393 1.59.826.092 1.551-.059 1.964-.468l-.001.001zm-.154.063l-.001 0-.013.006.014-.006zm-.178-.409l-.005.005c-.329.325-.915.404-1.573.331-1.063-.118-2.313-.659-3.107-1.453-.795-.795-1.336-2.047-1.453-3.112-.072-.658.009-1.244.337-1.572l.988-.989c.008.007.017.014.026.022.119.101.258.252.397.425.215.267.428.584.563.853.043.085.079.162.102.23 0 0-1.105.613-1.105.613-.044.024-.078.061-.1.106-.184.384-.153.865.043 1.36.268.674.841 1.38 1.477 1.863.438.332.907.558 1.327.611.317.04.609-.016.854-.182.031-.021.056-.05.074-.082l.614-1.106c.067.023.145.06.23.103.269.135.586.348.852.562.173.139.325.278.426.398.007.009.014.017.021.025l-.988.989z"/><path d="M4.39,2.457c0.577,-0.485 1.321,-0.777 2.132,-0.777c1.831,0 3.318,1.487 3.318,3.318c0,0.811 -0.292,1.555 -0.777,2.132c-0.085,0.102 -0.072,0.253 0.029,0.338c0.102,0.086 0.253,0.073 0.338,-0.029c0.555,-0.66 0.89,-1.512 0.89,-2.441c0,-2.096 -1.702,-3.798 -3.798,-3.798c-0.929,0 -1.781,0.335 -2.441,0.89c-0.102,0.085 -0.115,0.236 -0.029,0.338c0.085,0.101 0.236,0.114 0.338,0.029Z"/></svg>