<svg xmlns="http://www.w3.org/2000/svg" viewBox="0 0 64 64"><path d="M50.83 39.76 40 37.21v-4A13 13 0 0 0 44.64 26H45a4 4 0 0 0 2-7.44V16a15 15 0 0 0-30 0v2.56A4 4 0 0 0 19 26h.36A13 13 0 0 0 24 33.23v4l-10.83 2.53A8 8 0 0 0 7 47.54V57a1 1 0 0 0 1 1h1v5h2v-5h6v5h2V49h-2v7H9v-8.46a6 6 0 0 1 4.63-5.84L23 39.5v10.64a4 4 0 1 0 2 0V39.63l6.21 8a1 1 0 0 0 1.58 0l6.61-8.49 11 2.58a6 6 0 0 1 4.6 5.82V56h-8v-7h-2v14h2v-5h6v5h2v-5h1a1 1 0 0 0 1-1v-9.46a8 8 0 0 0-6.17-7.78ZM43 18.59 39.59 22H24.41L21 18.59V18a17.73 17.73 0 0 0 11-4.59A17.72 17.72 0 0 0 43 18ZM25 31.48V24h14v7.48a11 11 0 0 1-14 0Zm16-2.18v-5.89l2-2V23a10.86 10.86 0 0 1-2 6.3Zm4-5.3v-4a2 2 0 0 1 0 4Zm-26-8a13 13 0 0 1 26 0v1a1 1 0 0 0-1-1 15.84 15.84 0 0 1-11.3-4.71 1.06 1.06 0 0 0-1.46.05A15.75 15.75 0 0 1 20 16a1 1 0 0 0-1 1Zm0 8a2 2 0 0 1 0-4v3c0 .34 0 .67.05 1Zm2-1v-1.59l2 2v5.89a10.86 10.86 0 0 1-2-6.3Zm5 31a2 2 0 1 1-2-2 2 2 0 0 1 2 2Zm6-8.63-6-7.71v-3.14a12.9 12.9 0 0 0 12 0v3.14Z" data-name="Layer 22"/></svg>