<svg xmlns="http://www.w3.org/2000/svg" viewBox="0 0 512 512"><path fill-rule="evenodd" d="M37.789 19.67h66.029c7.897 0 14.846 4.258 18.669 10.59L92.083 57.853 76.182 41.951c-9.368-9.368-24.572-9.368-33.94 0-9.368 9.368-9.368 24.572 0 33.94l32.059 32.059c9.282 9.282 24.293 9.367 33.68.256l17.626-15.996v15.277c0 11.984-9.805 21.788-21.788 21.788h-66.03c-11.984 0-21.789-9.804-21.789-21.788V41.458c0-11.983 9.805-21.788 21.789-21.788zm175.146 374.237h268.549c7.984 0 14.516 6.533 14.516 14.516v54.817c0 7.984-6.532 14.516-14.516 14.516H212.935c-7.984 0-14.516-6.532-14.516-14.516v-54.817c0-7.983 6.532-14.516 14.516-14.516zm0-176.162h268.549c7.984 0 14.516 6.532 14.516 14.516v54.816c0 7.984-6.532 14.516-14.516 14.516H212.935c-7.984 0-14.516-6.532-14.516-14.516v-54.816c0-7.984 6.532-14.516 14.516-14.516zm0-176.162h268.549c7.984 0 14.516 6.532 14.516 14.516v54.817c0 7.984-6.532 14.516-14.516 14.516H212.935c-7.984 0-14.516-6.533-14.516-14.516V56.099c0-7.984 6.532-14.516 14.516-14.516zm28.549 49.924h211.452a8 8 0 0 0 0-16H241.484a8 8 0 0 0 0 16zm0 352.325h211.452a8 8 0 0 0 0-16H241.484a8 8 0 0 0 0 16zm0-176.162h211.452a8 8 0 0 0 0-16H241.484a8 8 0 0 0 0 16zM53.556 434.971a7.998 7.998 0 0 1 0-11.312 7.998 7.998 0 0 1 11.312 0l26.68 26.68 72.213-65.535a7.986 7.986 0 0 1 10.75 11.812l-77.54 70.369-.044.045a7.998 7.998 0 0 1-11.312 0l-32.059-32.059zm0-370.394 32.059 32.059a7.998 7.998 0 0 0 11.312 0l.044-.045 77.54-70.369a7.985 7.985 0 0 0 .531-11.281 7.985 7.985 0 0 0-11.281-.531L91.548 79.944l-26.68-26.679a7.998 7.998 0 0 0-11.312 0 7.998 7.998 0 0 0 0 11.312zm0 185.197a7.998 7.998 0 0 1 0-11.312 7.998 7.998 0 0 1 11.312 0l26.68 26.679 72.213-65.534a7.986 7.986 0 0 1 10.75 11.812l-77.54 70.369-.044.045a7.998 7.998 0 0 1-11.312 0l-32.059-32.059zM37.789 390.063c-11.984 0-21.789 9.805-21.789 21.789v66.029c0 11.984 9.805 21.789 21.789 21.789h66.029c11.984 0 21.788-9.804 21.788-21.789v-15.277L107.981 478.6c-9.387 9.111-24.398 9.026-33.68-.256l-32.059-32.059c-9.368-9.368-9.368-24.572 0-33.94 9.368-9.368 24.572-9.368 33.94 0l15.901 15.901 30.404-27.592c-3.822-6.333-10.772-10.591-18.669-10.591H37.789zm0-185.196c-11.984 0-21.789 9.805-21.789 21.788v66.029c0 11.984 9.805 21.788 21.789 21.788h66.029c11.984 0 21.788-9.805 21.788-21.788v-15.277l-17.626 15.996c-9.387 9.111-24.398 9.026-33.68-.256l-32.059-32.059c-9.368-9.368-9.368-24.572 0-33.94 9.368-9.368 24.572-9.368 33.94 0l15.901 15.901 30.404-27.592c-3.822-6.333-10.772-10.59-18.669-10.59H37.789z" clip-rule="evenodd"/></svg>